<svg viewBox="0 0 248 31" fill="none" xmlns="http://www.w3.org/2000/svg">
<path fill-rule="evenodd" clip-rule="evenodd" d="M25.517 0C18.712 0 14.46 3.382 12.758 10.146c2.552-3.382 5.529-4.65 8.931-3.805 1.942.482 3.329 1.882 4.864 3.432 2.502 2.524 5.398 5.445 11.722 5.445 6.804 0 11.057-3.382 12.758-10.145C48.481 8.455 45.504 9.723 42.102 8.878c-1.942-.482-3.329-1.882-4.864-3.432C34.736 2.922 31.841 0 25.517 0zM12.758 15.218C5.954 15.218 1.701 18.6 0 25.364c2.552-3.382 5.529-4.65 8.93-3.805 1.942.482 3.33 1.882 4.865 3.432 2.502 2.524 5.397 5.445 11.722 5.445 6.804 0 11.057-3.381 12.758-10.145-2.552 3.382-5.529 4.65-8.931 3.805-1.942-.482-3.329-1.882-4.864-3.432-2.502-2.524-5.398-5.445-11.722-5.445z" fill="#38bdf8"/>
<path fill-rule="evenodd" clip-rule="evenodd" d="M76.546 12.825h-4.453v8.567c0 2.285 1.508 2.249 4.453 2.106v3.463c-5.962.714-8.332-1.535-8.332-5.569v-8.567H64.91V9.112h3.304V4.318l3.879-1.143v5.937h4.453v3.713zM93.52 9.112h3.878v17.849h-3.878v-2.57c-1.365 1.891-3.484 3.034-6.285 3.034-4.884 0-8.942-4.105-8.942-9.389 0-5.318 4.058-9.388 8.942-9.388 2.801 0 4.92 1.142 6.285 2.999V9.112zm-5.674 14.636c2.966 0 5.674-2.249 5.674-6.054s-2.708-6.054-5.674-6.054c-2.967 0-5.674 2.249-5.674 6.054s2.707 6.054 5.674 6.054zM113.739 9.112h3.878v17.849h-3.878v-2.57c-1.365 1.891-3.484 3.034-6.285 3.034-4.884 0-8.942-4.105-8.942-9.389 0-5.318 4.058-9.388 8.942-9.388 2.801 0 4.92 1.142 6.285 2.999V9.112zm-5.674 14.636c2.966 0 5.674-2.249 5.674-6.054s-2.708-6.054-5.674-6.054c-2.967 0-5.674 2.249-5.674 6.054s2.707 6.054 5.674 6.054zM126.775 9.112h3.878v17.849h-3.878V9.112zm1.939-3.034c-1.365 0-2.478-1.142-2.478-2.463 0-1.356 1.113-2.498 2.478-2.498 1.364 0 2.478 1.142 2.478 2.498 0 1.321-1.114 2.463-2.478 2.463zM137.742 26.961h3.878V9.112h-3.878v17.849zm1.939-21.637c-1.365 0-2.478-1.142-2.478-2.463 0-1.356 1.113-2.498 2.478-2.498 1.364 0 2.478 1.142 2.478 2.498 0 1.321-1.114 2.463-2.478 2.463zM149.995 26.961h3.878v-8.896c0-3.713 2.745-4.463 5.674-4.06V9.112c-2.836-.571-4.920.571-5.674 2.606v-2.606h-3.878v17.849zM171.801 9.112h3.878v17.849h-3.878v-2.57c-1.365 1.891-3.484 3.034-6.285 3.034-4.884 0-8.942-4.105-8.942-9.389 0-5.318 4.058-9.388 8.942-9.388 2.801 0 4.92 1.142 6.285 2.999V9.112zm-5.674 14.636c2.966 0 5.674-2.249 5.674-6.054s-2.708-6.054-5.674-6.054c-2.967 0-5.674 2.249-5.674 6.054s2.707 6.054 5.674 6.054zM193.666 9.112h3.878v17.849h-3.878v-2.57c-1.365 1.891-3.484 3.034-6.285 3.034-4.884 0-8.942-4.105-8.942-9.389 0-5.318 4.058-9.388 8.942-9.388 2.801 0 4.92 1.142 6.285 2.999V9.112zm-5.674 14.636c2.966 0 5.674-2.249 5.674-6.054s-2.708-6.054-5.674-6.054c-2.967 0-5.674 2.249-5.674 6.054s2.707 6.054 5.674 6.054zM206.701 26.961h3.878v-8.896c0-3.713 2.745-4.463 5.674-4.06V9.112c-2.836-.571-4.92.571-5.674 2.606v-2.606h-3.878v17.849zM219.651 26.961h3.878V9.112h-3.878v17.849zm1.939-21.637c-1.365 0-2.478-1.142-2.478-2.463 0-1.356 1.113-2.498 2.478-2.498 1.364 0 2.478 1.142 2.478 2.498 0 1.321-1.114 2.463-2.478 2.463zM234.717 2.678h3.878v24.283h-3.878V2.678zM248 9.112h3.878v17.849H248v-2.57c-1.365 1.891-3.484 3.034-6.285 3.034-4.884 0-8.942-4.105-8.942-9.389 0-5.318 4.058-9.388 8.942-9.388 2.801 0 4.92 1.142 6.285 2.999V9.112zm-5.674 14.636c2.966 0 5.674-2.249 5.674-6.054s-2.708-6.054-5.674-6.054c-2.967 0-5.674 2.249-5.674 6.054s2.707 6.054 5.674 6.054z" fill="#38bdf8"/>
</svg>
